<?xml version="1.0" encoding="UTF-8"?>
<svg id="Layer_1" xmlns="http://www.w3.org/2000/svg" version="1.1" viewBox="0 0 421.6 338.1">
  <!-- Generator: Adobe Illustrator 29.8.5, SVG Export Plug-In . SVG Version: 2.1.1 Build 2)  -->
  <defs>
    <style>
      .st0 {
        fill: #399bd8;
      }
    </style>
  </defs>
  <g>
    <path class="st0" d="M55.2,237.3h-16.8c-.9,0-1.7.7-1.9,1.5l-1.6,7.1-1.6,7.1c-.2.8.4,1.5,1.2,1.5h17c.9,0,1.7-.7,1.9-1.5l1.5-7.1,1.5-7.1h0c.2-.9-.3-1.5-1.2-1.5h0Z"/>
    <path class="st0" d="M362.6,250.6l.7,2.9c.2.8-.3,1.5-1.2,1.5"/>
    <path class="st0" d="M361.9,247.6l.7,3-.7-3Z"/>
    <g>
      <path class="st0" d="M121.2,264.6h0l-3.4,11.9,3.4-11.9h0Z"/>
      <path class="st0" d="M138.5,290.4h-3.7,3.7Z"/>
      <path class="st0" d="M137.5,308.2h0l-22.1.1,22.1-.1h0Z"/>
      <path class="st0" d="M142.2,290.5h-3.7,3.7Z"/>
      <path class="st0" d="M139.5,306.7l3.9-14.7-3.9,14.7h0Z"/>
      <path class="st0" d="M220.9,239l-7.2,33.8c.1-.1,7.2-33.8,7.2-33.8Z"/>
      <path class="st0" d="M202.5,239l-5.5,25.2,5.5-25.2h0Z"/>
      <path class="st0" d="M219.7,237.4h-15.4c-.9,0-1.7.7-1.9,1.5l-5.5,25.2-5.5,25.2c-.2.8-1,1.5-1.9,1.5h-10.9c-10.8,0-9.5-7.4-7.3-17.6,0-.1,0-.2.1-.3l.2-1.3v-.2l.5-2.6.5-2.8c.2-.8.4-2.1.6-2.9l2.5-12.1,2.5-12.1c.2-.8-.4-1.5-1.2-1.5h-15.8c-.9,0-1.7.7-1.9,1.5l-3.4,16.1-3.4,16.1h0l-.3,1.5c-3.9,17.8-2.9,34.8,18.3,35.3h33.9c.9,0,1.7-.7,1.9-1.5l7.2-33.8,7.2-33.8c.4-.7-.1-1.4-1-1.4h0Z"/>
      <path class="st0" d="M281,291.1c.9,0,1.4.7,1.2,1.5l-1.5,7.3"/>
      <path class="st0" d="M279.2,307.2l1.5-7.3-1.5,7.3h0Z"/>
      <path class="st0" d="M277.4,308.7h0c-4.5,0-18.1.1-28.3.1,12.4.1,28.3-.1,28.3-.1h0Z"/>
      <path class="st0" d="M239.9,281.7c0-.8.9-2.2,1.7-2.2h-1.9c-.8,8.7.2,2.2.2,2.2h0Z"/>
      <path class="st0" d="M250.5,308.9h-.3.3Z"/>
      <path class="st0" d="M281,291.1c.9,0,1.4.7,1.2,1.5l-1.5,7.3-.2,1.2"/>
      <path class="st0" d="M257.7,308.8h0Z"/>
      <path class="st0" d="M254,308.8h-.2.2Z"/>
      <path class="st0" d="M252.8,308.9h-.4.4Z"/>
      <path class="st0" d="M251.6,308.9h-.3.3Z"/>
      <path class="st0" d="M253.7,308.8h-.9c.3.1.6,0,.9,0Z"/>
      <path class="st0" d="M257.7,308.8h-3.7,3.7Z"/>
      <path class="st0" d="M277.4,308.7h0c-3.3,0-11.5.1-19.6.1,8.1,0,16.3-.1,19.6-.1Z"/>
      <path class="st0" d="M279.2,307.2l1.2-6.1-1.2,6.1h0Z"/>
      <path class="st0" d="M252.5,308.9h-.8.8Z"/>
      <path class="st0" d="M250.2,308.9h-1.1,1.1Z"/>
      <path class="st0" d="M251.3,308.9h-.9.9Z"/>
      <path class="st0" d="M26.7,281.9l2.4-10.6-2.7,12.1-2.6,12.3,2.3-10.8c.1-.8.4-2.2.6-3h0Z"/>
      <path class="st0" d="M51.6,260.7h0l-4.9,22.9,4.9-22.9Z"/>
      <path class="st0" d="M2.6,336.6s8.5.1,13.9.1c-4.1,0-10.9-.1-13.9-.1h0Z"/>
      <path class="st0" d="M31.5,260.7l-2.4,10.6,2.4-10.6Z"/>
      <path class="st0" d="M50.4,259.2h-17c-.9,0-1.7.7-1.9,1.5l-2.4,10.6-2.4,10.6c-.2.8-.5,2.2-.7,3l-2.3,10.8-2.3,10.8c-.2.8-.5,2.2-.8,3,0,0-3.2,9.4-8.5,9.3h-.7c-2.6,0-4.6-.1-4.6-.1h0c-.9,0-1.7.7-1.9,1.5l-1.8,7.4-1.7,7.4c-.2.8.3,1.5,1.2,1.5,3,0,9.8.1,13.9.1,13.3,0,20.4-7.4,24.9-28.6l5.3-24.4,4.9-22.9c.2-.8-.4-1.5-1.2-1.5h0Z"/>
      <path class="st0" d="M291.8,308c-.9,0-1.4-.7-1.2-1.5l12.8-59.9"/>
      <path class="st0" d="M309.6,306.5l5.2-25.6-5.2,25.6Z"/>
      <path class="st0" d="M290.8,307.2c-.1-.4,0-1.4.1-2.3l6.1-28.4-6.4,29.9c-.2.8.4,1.5,1.2,1.5h1.6c-.9.1-2.5-.3-2.6-.7h0Z"/>
      <path class="st0" d="M308.6,307.6c-.5.2-1.5.3-2.4.3h1.6c.9,0,1.7-.7,1.9-1.5l.3-1.5c-.3.9-1,2.6-1.4,2.7h0Z"/>
      <path class="st0" d="M312.2,293.7l2.3-11.3h0l-2.3,11.3h0Z"/>
      <path class="st0" d="M309.9,305l2.3-11.3-2.3,11.3Z"/>
      <path class="st0" d="M314.4,282.4c.2-.8.5-2.2.6-3l2.4-11.4-2.8,12.9-.2,1.5h0Z"/>
      <path class="st0" d="M303.6,245.6c-.2.8-.4,1.8-.5,2.5l-6.1,28.4,6.4-29.9.2-1h0Z"/>
      <path class="st0" d="M363.3,253.5l-.7-2.9-.7-3-.4-1.5c-1.4-5.4-5.4-8.5-14.2-8.5h-40.5c-.9,0-1.7.7-1.9,1.5h0l-.6,3-.7,3.5-.2,1-6.4,29.9-6.1,28.4c-.2.8-.2,1.9-.1,2.3s1.7.8,2.6.8h12.8c.9,0,1.9-.2,2.4-.3.5-.2,1.2-1.9,1.3-2.7l2.3-11.3,2.3-11.3h0l.3-1.5,2.8-12.9,2.4-11.4c.2-.8,1-1.5,1.9-1.5h40.3c.8-.1,1.3-.8,1.1-1.6h0Z"/>
      <path class="st0" d="M415.2,227.2h-16c-.9,0-1.9.6-2.4,1.3l-28.5,41.8c-.5.7-1,.6-1.2-.2l-2.1-9.2c-.2-.8-1-1.5-1.9-1.5h-18.3c-.9,0-1.4.7-1.1,1.5l8.2,28.8c.2.8.3,2.2,0,3l-3.6,13.9c-.2.8.3,1.5,1.2,1.5h18.1c.9,0,1.7-.7,1.9-1.5l3.6-13.9c.2-.8.8-2.1,1.3-2.7l46.3-61.5c.5-.7.2-1.2-.6-1.2l-4.9-.1h0Z"/>
      <path class="st0" d="M269.5,263.2h0c-.1.9-1,1.6-1.8,1.6h-23.2c-.8,0-1.2-.5-1.1-1.2v-.1h0v-.1s0-.2.1-.4c2.2-5.9,6.7-9.8,15.2-9.8,9.6.1,11.5,4.8,10.8,10h0ZM262.7,236.4c-29.8,0-36.9,18.1-40.9,36.4-4,18.6-3.6,36.1,27.3,36.1h8.7c8.2,0,16.3-.1,19.6-.1.8,0,1.7-.7,1.9-1.5l1.2-6.1.2-1.2,1.5-7.3c.2-.8-.4-1.5-1.2-1.5h-27.8c-11,0-14.3-2.9-13.1-11.6h44.4c.7,0,1.4-.5,1.6-1.1,0-.1.1-.3.1-.4h0c6.6-25,4.7-41.7-23.5-41.7h0Z"/>
      <path class="st0" d="M121.7,263.1l-.4,1.5h0l-3.4,11.9-3.3,11.9c-.2.8-1.1,1.5-2,1.5h-17.8c-13.5,0-16.7-10.5-13.5-26,3.3-15.9,9.7-25.7,22.9-26.7,18.2-1.5,21.8,11.3,17.5,25.9h0ZM133.8,289s8.4-20.3,10.3-32c2.6-15.7-5.3-38.5-35.6-38.5s-43.3,21.7-48.3,45.4c-5,23.8,1.6,44.7,31.6,44.5l23.7-.1,22.1-.1c.9,0,1.7-.7,1.9-1.5l3.9-14.7c.2-.8-.3-1.5-1.2-1.5h-7.4c-.7,0-1.1-.5-1.1-1.1,0-.2.1-.3.1-.4h0Z"/>
      <path class="st0" d="M283.3,275.4c0,.6-.5,1-1,1-.6,0-1-.5-1-1,0-.6.5-1,1-1s1,.4,1,1Z"/>
    </g>
  </g>
  <g>
    <path class="st0" d="M121.4,46.7c-18.2,26.2-15.9,60.2-2,88,.3.7.7,1.3,1,2,.2.4.4.8.7,1.3.1.2.3.5.4.7.2.4.5.9.7,1.3.4.8.9,1.5,1.3,2.3.3.4.5.8.8,1.2.5.8,1,1.6,1.5,2.4.2.3.4.7.7,1,.7,1.1,1.5,2.2,2.2,3.2,0,0,0,.1.1.1.1.2.3.3.4.5.7.9,1.3,1.8,2,2.7.3.3.5.7.8,1,.6.8,1.2,1.5,1.9,2.3.2.3.5.6.7.9.9,1,1.7,2,2.6,3l.1.1.1.1c.9.9,1.8,1.9,2.7,2.8l.9.9,2.1,2.1c.3.3.6.6.9.8,1,.9,1.9,1.8,2.9,2.6h0c.2.1.3.3.5.4.9.8,1.8,1.5,2.6,2.2.4.3.7.6,1.1.9.7.6,1.5,1.2,2.2,1.7.4.3.8.6,1.2.9.8.6,1.6,1.2,2.5,1.8.3.2.6.4.9.6.1.1.2.1.2.2.8.5,1.6,1.1,2.4,1.6.3.2.7.5,1,.7,1.2.8,2.5,1.6,3.8,2.3.3.2.7.4,1,.6.9.5,1.9,1.1,2.8,1.6.5.3,1,.5,1.6.8.7.4,1.3.7,2,1.1.2.1.3.1.5.2.3.1.6.3.8.4,1.1.5,2.1,1,3.2,1.5.2.1.5.2.7.3,1.2.5,2.5,1.1,3.7,1.6.3.1.6.2.9.4,1.2.4,2.3.9,3.5,1.3.1.1.3.1.4.2,1.3.5,2.6.9,3.9,1.3.3.1.6.2.9.3,1.3.4,2.7.9,4.1,1.1,88,16,113.6-52.9,113.6-52.9-21.5,28-59.6,35.3-95.7,27.1-1.4-.3-2.7-.7-4-1.1-.3-.1-.7-.2-1-.3-1.3-.4-2.6-.8-3.9-1.3-.2-.1-.4-.1-.5-.2-1.2-.4-2.3-.8-3.4-1.3-.3-.1-.6-.3-1-.4-1.2-.5-2.5-1-3.7-1.5-.3-.1-.5-.2-.7-.3-1-.5-2.1-1-3.1-1.4-.3-.1-.6-.3-.9-.4-.8-.4-1.6-.8-2.4-1.2-.5-.3-1.1-.5-1.6-.8-1-.5-1.9-1.1-2.9-1.6-.3-.2-.7-.4-1-.5-1.3-.7-2.5-1.5-3.8-2.3-.3-.2-.7-.5-1-.7-.9-.6-1.8-1.2-2.7-1.8-.3-.2-.6-.4-.9-.6-.9-.6-1.7-1.2-2.5-1.8-.4-.3-.8-.6-1.1-.8-.8-.6-1.5-1.2-2.3-1.8-.3-.3-.7-.5-1-.8-1-.8-1.9-1.6-2.8-2.4l-.3-.3c-1-.9-2-1.8-3-2.7-.3-.3-.6-.5-.8-.8l-2.1-2.1-.8-.8c-.9-.9-1.8-1.8-2.6-2.8l-.1-.1c-.9-1-1.8-2-2.7-3-.2-.3-.5-.6-.7-.8-.7-.8-1.3-1.6-1.9-2.4-.2-.3-.5-.6-.7-.9-.8-1-1.5-2-2.2-3-20-27.3-27.2-65.1-11.2-96"/>
    <path class="st0" d="M177.9,24.6c-13.2,18.9-12.4,44.3-2.2,64.3,1.7,3.4,3.7,6.6,5.8,9.7,2,2.8,4.2,6.2,6.8,8.5.9,1,1.9,2.1,3,3.1l.8.8c1,1,2,1.9,3,2.8l.1.1h0c1.1,1,2.3,2,3.5,2.9.3.2.5.4.8.6,1.2.9,2.4,1.8,3.7,2.7l.1.1c.6.4,1.1.7,1.7,1.1.3.2.5.4.8.5.9.6,1.8,1.1,2.7,1.7.1.1.3.1.4.2.8.5,1.6.9,2.4,1.3.3.2.6.3.9.4.6.3,1.1.6,1.7.9.1,0,.2.1.3.1,1.2.6,2.3,1.1,3.5,1.6.3.1.5.2.8.3,1,.4,1.9.8,2.9,1.2.4.2.8.3,1.2.5.9.3,1.8.6,2.7.9.4.1.8.3,1.2.4,1.3.4,2.5.9,3.8,1.1,67.9,11.3,83.6-41.1,83.6-41.1-14.1,20.4-41.5,30.1-70.7,22.5-1.3-.3-2.6-.7-3.8-1.1-.4-.1-.8-.2-1.2-.4-.9-.3-1.8-.6-2.7-.9-.4-.1-.8-.3-1.2-.5-1-.4-1.9-.8-2.9-1.2-.3-.1-.5-.2-.8-.3-1.2-.5-2.4-1.1-3.5-1.6l-1.8-.9c-.3-.2-.7-.4-1-.5-.8-.4-1.5-.8-2.2-1.3-.2-.1-.4-.2-.5-.3-.9-.5-1.8-1.1-2.7-1.7-.3-.2-.5-.4-.8-.5-.6-.4-1.2-.8-1.8-1.2-1.3-.9-2.5-1.8-3.7-2.7-.3-.2-.6-.4-.8-.7-12.8-10.1-22.9-23.9-27.8-39.5-5.1-16.2-4-34.4,4.8-49.2"/>
    <path class="st0" d="M225.4,8.2c-7.8,11.4-8.5,25.6-3.1,38.2,5.7,13.4,17.3,23.9,30.9,28.9.6.2,1.1.4,1.7.6.2.1.5.2.7.2.8.3,1.6.5,2.4.7,37.5,7.2,47.7-19.3,50.4-23.2-8.9,12.8-23.9,15.9-42.3,11.5-1.5-.4-3-.9-4.4-1.4-1.8-.6-3.6-1.4-5.3-2.2-3.3-1.6-6.4-3.5-9.3-5.7-16.4-12.5-26.7-36.3-15.9-55.7"/>
  </g>
</svg>