<?xml version="1.0" encoding="UTF-8"?>
<svg id="Layer_1" xmlns="http://www.w3.org/2000/svg" version="1.1" viewBox="0 0 561.3 387.5">
  <!-- Generator: Adobe Illustrator 29.8.5, SVG Export Plug-In . SVG Version: 2.1.1 Build 2)  -->
  <defs>
    <style>
      .st0 {
        fill: none;
      }

      .st1 {
        fill: #f8981d;
      }

      .st2 {
        fill: #5d87a1;
      }
    </style>
  </defs>
  <path class="st0" d="M-109.94-94.25h800V460.24H-109.94V-94.25Z"/>
  <path class="st2" d="M134.95,353.58h-21.66c-.77-36.56-2.88-70.93-6.32-103.13h-.19l-32.97,103.13h-16.49l-32.78-103.13h-.19c-2.43,30.92-3.96,65.3-4.6,103.13H0c1.27-46.01,4.47-89.14,9.58-129.4h26.84l31.24,95.08h.19l31.43-95.08h25.68c5.62,47.16,8.95,90.3,9.97,129.4M228.87,258.11c-8.82,47.85-20.45,82.62-34.89,104.33-11.25,16.71-23.58,25.07-37,25.07-3.58,0-7.99-1.08-13.23-3.22v-11.54c2.56.37,5.56.58,9.01.58,6.27,0,11.31-1.72,15.15-5.18,4.6-4.21,6.89-8.94,6.89-14.18,0-3.59-1.79-10.93-5.37-22.05l-23.77-73.81h21.28l17.06,55.2c3.83,12.53,5.43,21.29,4.79,26.27,9.33-24.91,15.85-52.08,19.56-81.48h20.51Z"/>
  <path class="st1" d="M517.17,353.58h-61.52v-129.4h20.7v113.47h40.83v15.93ZM439.54,356.7l-23.79-11.74c2.11-1.73,4.13-3.61,5.94-5.78,10.11-11.88,15.15-29.44,15.15-52.71,0-42.81-16.8-64.23-50.41-64.23-16.48,0-29.34,5.43-38.53,16.3-10.1,11.89-15.15,29.39-15.15,52.53s4.47,39.43,13.41,50.02c8.18,9.59,20.52,14.39,37.01,14.39,6.15,0,11.8-.75,16.94-2.27l30.97,18.03,8.45-14.54ZM362.48,327.68c-5.24-8.43-7.86-21.96-7.86-40.63,0-32.58,9.9-48.89,29.71-48.89,10.36,0,17.95,3.9,22.8,11.69,5.23,8.44,7.86,21.85,7.86,40.26,0,32.85-9.91,49.28-29.71,49.28-10.36,0-17.95-3.88-22.81-11.7M323.74,317.71c0,10.97-4.03,19.98-12.07,27.03-8.05,7.02-18.85,10.54-32.38,10.54-12.66,0-24.93-4.04-36.8-12.09l5.56-11.11c10.22,5.12,19.47,7.66,27.78,7.66,7.8,0,13.89-1.73,18.31-5.16,4.42-3.44,7.05-8.27,7.05-14.37,0-7.69-5.36-14.26-15.2-19.76-9.07-4.98-27.21-15.39-27.21-15.39-9.83-7.17-14.75-14.86-14.75-27.53,0-10.49,3.67-18.95,11.02-25.4,7.35-6.47,16.84-9.69,28.47-9.69s22.93,3.22,32.77,9.59l-4.99,11.12c-8.41-3.57-16.72-5.36-24.91-5.36-6.63,0-11.76,1.59-15.32,4.8-3.59,3.19-5.8,7.27-5.8,12.28,0,7.65,5.47,14.3,15.58,19.92,9.19,4.99,27.78,15.58,27.78,15.58,10.08,7.15,15.12,14.77,15.12,27.35"/>
  <path class="st2" d="M543.15,180.83c-12.51-.32-22.2.94-30.33,4.38-2.35.94-6.08.94-6.41,3.9,1.27,1.26,1.41,3.28,2.52,5.01,1.87,3.13,5.14,7.33,8.13,9.53,3.28,2.51,6.57,5,10.02,7.19,6.08,3.76,12.97,5.95,18.9,9.7,3.45,2.18,6.88,5,10.34,7.35,1.7,1.25,2.79,3.28,4.99,4.06v-.48c-1.1-1.41-1.42-3.44-2.5-5.01l-4.7-4.53c-4.54-6.09-10.17-11.41-16.26-15.78-5.01-3.45-15.95-8.14-17.98-13.9l-.32-.32c3.44-.32,7.52-1.57,10.79-2.53,5.32-1.4,10.17-1.08,15.63-2.49,2.51-.63,5-1.41,7.52-2.19v-1.41c-2.83-2.82-4.85-6.56-7.82-9.22-7.96-6.88-16.73-13.6-25.8-19.23-4.85-3.13-11.1-5.15-16.27-7.82-1.86-.94-5-1.41-6.1-2.97-2.8-3.44-4.38-7.97-6.42-12.04-4.52-8.59-8.91-18.13-12.81-27.21-2.82-6.09-4.54-12.18-7.98-17.82-16.11-26.58-33.61-42.67-60.51-58.47-5.78-3.29-12.66-4.69-20-6.42l-11.73-.62c-2.5-1.1-5.01-4.07-7.19-5.48-8.92-5.62-31.9-17.82-38.46-1.72-4.23,10.17,6.25,20.18,9.85,25.34,2.66,3.58,6.1,7.66,7.96,11.73,1.1,2.66,1.41,5.48,2.51,8.29,2.5,6.88,4.84,14.54,8.13,20.96,1.72,3.27,3.59,6.71,5.78,9.68,1.26,1.73,3.44,2.5,3.92,5.32-2.18,3.11-2.35,7.81-3.6,11.72-5.62,17.67-3.43,39.55,4.55,52.53,2.49,3.91,8.45,12.51,16.41,9.22,7.05-2.81,5.49-11.72,7.51-19.54.46-1.89.16-3.13,1.1-4.37v.31c2.18,4.37,4.38,8.59,6.4,12.97,4.85,7.65,13.3,15.63,20.33,20.93,3.75,2.83,6.71,7.67,11.4,9.4v-.47h-.31c-.95-1.4-2.34-2.03-3.59-3.12-2.82-2.82-5.94-6.26-8.13-9.38-6.55-8.76-12.35-18.46-17.5-28.46-2.52-4.85-4.69-10.16-6.72-15.01-.95-1.87-.95-4.69-2.52-5.63-2.35,3.44-5.78,6.41-7.5,10.62-2.98,6.73-3.29,15.02-4.39,23.63l-.62.3c-4.98-1.25-6.71-6.4-8.6-10.78-4.68-11.11-5.47-28.94-1.41-41.75,1.09-3.28,5.8-13.6,3.92-16.72-.94-2.99-4.07-4.7-5.79-7.05-2.02-2.96-4.23-6.71-5.63-10-3.75-8.75-5.64-18.45-9.68-27.2-1.89-4.08-5.16-8.3-7.82-12.05-2.98-4.22-6.26-7.19-8.61-12.19-.78-1.72-1.87-4.53-.62-6.4.31-1.26.94-1.72,2.19-2.04,2.03-1.71,7.81.46,9.84,1.41,5.8,2.34,10.64,4.53,15.48,7.81,2.19,1.57,4.54,4.54,7.34,5.32h3.29c4.99,1.09,10.62.3,15.32,1.72,8.28,2.66,15.79,6.57,22.52,10.78,20.48,12.99,37.37,31.44,48.77,53.48,1.87,3.59,2.67,6.88,4.37,10.63,3.29,7.67,7.37,15.49,10.63,22.99,3.29,7.34,6.42,14.84,11.11,20.95,2.34,3.28,11.74,5,15.95,6.72,3.12,1.4,7.97,2.65,10.79,4.37,5.32,3.28,10.62,7.04,15.62,10.64,2.49,1.87,10.32,5.78,10.78,8.91M383.67,44.97c-2.16-.02-4.31.24-6.4.79v.31h.3c1.26,2.5,3.45,4.23,5.01,6.41,1.26,2.51,2.35,4.99,3.59,7.5l.3-.31c2.21-1.56,3.3-4.06,3.3-7.82-.95-1.1-1.1-2.18-1.89-3.28-.92-1.57-2.95-2.34-4.21-3.6"/>
  <path class="st1" d="M558.04,353.56h3.24v-15.85h-4.86l-3.96,10.82-4.31-10.82h-4.68v15.85h3.06v-12.06h.17l4.51,12.06h2.33l4.49-12.06v12.06h0ZM531.95,353.56h3.43v-13.17h4.49v-2.69h-12.59v2.69h4.67v13.17s0,0,0,0Z"/>
</svg>