<?xml version="1.0" encoding="UTF-8"?>
<svg id="Layer_1" xmlns="http://www.w3.org/2000/svg" version="1.1" viewBox="0 0 800 604">
  <!-- Generator: Adobe Illustrator 29.8.5, SVG Export Plug-In . SVG Version: 2.1.1 Build 2)  -->
  <defs>
    <style>
      .st0 {
        fill: #44a8b3;
      }
    </style>
  </defs>
  <path class="st0" d="M225,244.5c23.33-93.33,81.67-140,175-140,140,0,157.5,105,227.5,122.5,46.67,11.67,87.5-5.83,122.5-52.5-23.33,93.33-81.67,140-175,140-140,0-157.5-105-227.5-122.5-46.67-11.67-87.5,5.83-122.5,52.5ZM50,454.5c23.33-93.33,81.67-140,175-140,140,0,157.5,105,227.5,122.5,46.67,11.67,87.5-5.83,122.5-52.5-23.33,93.33-81.67,140-175,140-140,0-157.5-105-227.5-122.5-46.67-11.67-87.5,5.83-122.5,52.5Z"/>
</svg>