<?xml version="1.0" encoding="UTF-8"?>
<svg id="Layer_1" xmlns="http://www.w3.org/2000/svg" version="1.1" viewBox="0 0 640 640">
  <!-- Generator: Adobe Illustrator 29.8.5, SVG Export Plug-In . SVG Version: 2.1.1 Build 2)  -->
  <defs>
    <style>
      .st0 {
        isolation: isolate;
        opacity: .4;
      }

      .st0, .st1 {
        fill: #f9f9f9;
      }
    </style>
  </defs>
  <path class="st0" d="M144,304v176c0,26.5,21.5,48,48,48h192c26.5,0,48-21.5,48-48v-176H144Z"/>
  <path class="st1" d="M184,48c13.3,0,24,10.7,24,24,0,16.1,7.5,23.7,23.8,37.9l1.1,1c15.7,13.7,39.1,34.2,39.1,73.1,0,13.3-10.7,24-24,24s-24-10.7-24-24c0-16.1-7.5-23.7-23.8-37.9l-1.1-1c-15.7-13.7-39.1-34.2-39.1-73.1,0-13.3,10.7-24,24-24ZM144,480c0,26.5,21.5,48,48,48h192c26.5,0,48-21.5,48-48v-176H144v176ZM480,304v144h8c39.8,0,72-32.2,72-72s-32.2-72-72-72h-8ZM478.7,496c-7.6,45.4-47.1,80-94.7,80h-192c-53,0-96-43-96-96v-192c0-17.7,14.3-32,32-32h360c66.3,0,120,53.7,120,120s-53.7,120-120,120h-9.3ZM320,72c0,16.1,7.5,23.7,23.8,37.9l1.1,1c15.7,13.7,39.1,34.2,39.1,73.1,0,13.3-10.7,24-24,24s-24-10.7-24-24c0-16.1-7.5-23.7-23.8-37.9l-1.1-1c-15.7-13.7-39.1-34.2-39.1-73.1,0-13.3,10.7-24,24-24s24,10.7,24,24Z"/>
</svg>