<?xml version="1.0" encoding="UTF-8"?>
<svg id="Layer_1" xmlns="http://www.w3.org/2000/svg" version="1.1" viewBox="0 0 640 640">
  <!-- Generator: Adobe Illustrator 29.8.5, SVG Export Plug-In . SVG Version: 2.1.1 Build 2)  -->
  <defs>
    <style>
      .st0 {
        isolation: isolate;
        opacity: .4;
      }

      .st0, .st1 {
        fill: #5ec65a;
      }
    </style>
  </defs>
  <path class="st0" d="M225.2,535.2c-4.9,17,5,34.7,22,39.6,17,4.9,34.7-5,39.6-22L414.8,104.8c4.9-17-5-34.7-22-39.6-17-4.9-34.7,5-39.6,22l-128,448Z"/>
  <path class="st1" d="M457.4,201.4c-12.5,12.5-12.5,32.8,0,45.3l73.4,73.4-73.4,73.4c-12.5,12.5-12.5,32.8,0,45.3s32.8,12.5,45.3,0l96-96c12.5-12.5,12.5-32.8,0-45.3l-96-96c-12.5-12.5-32.8-12.5-45.3,0v-.1ZM182.7,201.4c-12.5-12.5-32.8-12.5-45.3,0l-96,96c-12.5,12.5-12.5,32.8,0,45.3l96,96c12.5,12.5,32.8,12.5,45.3,0s12.5-32.8,0-45.3l-73.4-73.4,73.3-73.4c12.5-12.5,12.5-32.8,0-45.3l.1.1Z"/>
</svg>