<?xml version="1.0" encoding="UTF-8"?>
<svg id="Layer_1" xmlns="http://www.w3.org/2000/svg" version="1.1" viewBox="0 0 89 27">
  <!-- Generator: Adobe Illustrator 29.8.5, SVG Export Plug-In . SVG Version: 2.1.1 Build 2)  -->
  <defs>
    <style>
      .st0 {
        fill: #1dbf73;
      }

      .st1 {
        fill: #f7f7f7;
      }
    </style>
  </defs>
  <path class="st1" d="M81.6,13.1h-3.1c-2,0-3.1,1.5-3.1,4.1v9.3h-6v-13.4h-2.5c-2,0-3.1,1.5-3.1,4.1v9.3h-6V8.1h6v2.8c1-2.2,2.3-2.8,4.3-2.8h7.3v2.8c1-2.2,2.3-2.8,4.3-2.8h2l-.1,5h0ZM56.4,18.7h-12.4c.3,2.1,1.6,3.2,3.7,3.2,1.6,0,2.7-.7,3.1-1.8l5.3,1.5c-1.3,3.2-4.5,5.1-8.4,5.1-6.5,0-9.5-5.1-9.5-9.5s2.6-9.4,9.1-9.4c6.9,0,9.2,5.2,9.2,9.1,0,.9,0,1.4-.1,1.8ZM50.7,15.2c-.1-1.6-1.3-3-3.3-3s-3,.8-3.4,3h6.7ZM27.8,26.5h5.2l6.6-18.3h-6l-3.2,10.7-3.2-10.8h-6s6.6,18.4,6.6,18.4ZM3.4,26.5h5.9v-13.4h5.7v13.4h5.9V8.1h-11.6v-1.1c0-1.2.9-2,2.2-2h3.5V0h-4.4C6.3,0,3.4,2.7,3.4,6.6v1.5H0v5h3.4v13.4Z"/>
  <path class="st0" d="M85.3,27c2,0,3.7-1.7,3.7-3.7s-1.7-3.7-3.7-3.7-3.7,1.7-3.7,3.7,1.7,3.7,3.7,3.7Z"/>
</svg>