<?xml version="1.0" encoding="UTF-8"?>
<svg id="Layer_1" xmlns="http://www.w3.org/2000/svg" version="1.1" viewBox="0 0 640 640">
  <!-- Generator: Adobe Illustrator 29.8.5, SVG Export Plug-In . SVG Version: 2.1.1 Build 2)  -->
  <defs>
    <style>
      .st0 {
        isolation: isolate;
        opacity: .4;
      }

      .st0, .st1 {
        fill: #5ec65a;
      }
    </style>
  </defs>
  <path class="st0" d="M32,192c0,6.4,3.8,12.2,9.7,14.7l50.1,21.5,21.5,50.1c2.5,5.9,8.3,9.7,14.7,9.7s12.2-3.8,14.7-9.7l21.5-50.1,50.1-21.5c5.9-2.5,9.7-8.3,9.7-14.7s-3.8-12.2-9.7-14.7l-50.1-21.5-21.5-50.1c-2.5-5.9-8.3-9.7-14.7-9.7s-12.2,3.8-14.7,9.7l-21.5,50.1-50.1,21.5c-5.9,2.5-9.7,8.3-9.7,14.7ZM224,96c0,3.3,2,6.2,5,7.4l36.8,14.8,14.8,36.8c1.2,3,4.2,5,7.4,5s6.2-2,7.4-5l14.8-36.8,36.8-14.8c3-1.2,5-4.2,5-7.4s-2-6.2-5-7.4l-36.8-14.8-14.8-36.8c-1.2-3-4.2-5-7.4-5s-6.2,2-7.4,5l-14.8,36.8-36.8,14.8c-3,1.2-5,4.2-5,7.4ZM357.4,181.4l101.3,101.3c35.1-35.1,70.1-70.1,105.2-105.2,7.8-7.8,12.2-18.4,12.2-29.5s-4.4-21.6-12.2-29.5l-42.4-42.3c-7.9-7.8-18.5-12.2-29.5-12.2s-21.6,4.4-29.5,12.2c-35.1,35.1-70.1,70.1-105.2,105.2h.1ZM400,464c0,6.4,3.8,12.2,9.7,14.7l50.1,21.5,21.5,50.1c2.5,5.9,8.3,9.7,14.7,9.7s12.2-3.8,14.7-9.7l21.5-50.1,50.1-21.5c5.9-2.5,9.7-8.3,9.7-14.7s-3.8-12.2-9.7-14.7l-50.1-21.5-21.5-50.1c-2.5-5.9-8.3-9.7-14.7-9.7s-12.2,3.8-14.7,9.7l-21.5,50.1-50.1,21.5c-5.9,2.5-9.7,8.3-9.7,14.7Z"/>
  <path class="st1" d="M458.6,282.6l-101.2-101.2L76.2,462.5c-7.8,7.9-12.2,18.5-12.2,29.5s4.4,21.6,12.2,29.5l42.3,42.3c7.9,7.8,18.5,12.2,29.5,12.2s21.6-4.4,29.5-12.2l281.1-281.2Z"/>
</svg>