<?xml version="1.0" encoding="UTF-8"?>
<svg id="Layer_1" xmlns="http://www.w3.org/2000/svg" version="1.1" viewBox="0 0 640 640">
  <!-- Generator: Adobe Illustrator 29.8.5, SVG Export Plug-In . SVG Version: 2.1.1 Build 2)  -->
  <defs>
    <style>
      .st0 {
        fill: #f7f7f7;
      }
    </style>
  </defs>
  <path class="st0" d="M544,360c0,66.3-53.7,120-120,120h-8c-17.7,0-32-14.3-32-32s14.3-32,32-32h8c30.9,0,56-25.1,56-56v-8h-64c-35.3,0-64-28.7-64-64v-64c0-35.3,28.7-64,64-64h64c35.3,0,64,28.7,64,64v136ZM288,360c0,66.3-53.7,120-120,120h-8c-17.7,0-32-14.3-32-32s14.3-32,32-32h8c30.9,0,56-25.1,56-56v-8h-64c-35.3,0-64-28.7-64-64v-64c0-35.3,28.7-64,64-64h64c35.3,0,64,28.7,64,64v136Z"/>
</svg>