<?xml version="1.0" encoding="UTF-8"?>
<svg id="Layer_1" xmlns="http://www.w3.org/2000/svg" version="1.1" viewBox="0 0 640 640">
  <!-- Generator: Adobe Illustrator 29.8.5, SVG Export Plug-In . SVG Version: 2.1.1 Build 2)  -->
  <defs>
    <style>
      .st0 {
        fill: #22c55e;
      }
    </style>
  </defs>
  <path class="st0" d="M128,112c0-8.8,7.2-16,16-16h32c8.8,0,16,7.2,16,16v16h48c8.8,0,16,7.2,16,16v48h128v-48c0-8.8,7.2-16,16-16h48v-16c0-8.8,7.2-16,16-16h32c8.8,0,16,7.2,16,16v32c0,8.8-7.2,16-16,16h-48v64h48c8.8,0,16,7.2,16,16v48h32v-80c0-8.8,7.2-16,16-16h32c8.8,0,16,7.2,16,16v128c0,8.8-7.2,16-16,16h-48v80c0,8.8-7.2,16-16,16h-48v80c0,8.8-7.2,16-16,16h-96c-8.8,0-16-7.2-16-16v-32c0-8.8,7.2-16,16-16h48v-32h-192v32h48c8.8,0,16,7.2,16,16v32c0,8.8-7.2,16-16,16h-96c-8.8,0-16-7.2-16-16v-80h-48c-8.8,0-16-7.2-16-16v-80h-48c-8.8,0-16-7.2-16-16v-128c0-8.8,7.2-16,16-16h32c8.8,0,16,7.2,16,16v80h32v-48c0-8.8,7.2-16,16-16h48v-64h-48c-8.8,0-16-7.2-16-16v-32ZM192,304v64c0,8.8,7.2,16,16,16h32c8.8,0,16-7.2,16-16v-64c0-8.8-7.2-16-16-16h-32c-8.8,0-16,7.2-16,16ZM384,304v64c0,8.8,7.2,16,16,16h32c8.8,0,16-7.2,16-16v-64c0-8.8-7.2-16-16-16h-32c-8.8,0-16,7.2-16,16Z"/>
</svg>