<?xml version="1.0" encoding="UTF-8"?>
<svg id="Layer_1" xmlns="http://www.w3.org/2000/svg" version="1.1" viewBox="0 0 640 640">
  <!-- Generator: Adobe Illustrator 29.8.5, SVG Export Plug-In . SVG Version: 2.1.1 Build 2)  -->
  <defs>
    <style>
      .st0 {
        fill: #22c55e;
      }
    </style>
  </defs>
  <path class="st0" d="M160,80c0-8.8,7.2-16,16-16h16c8.8,0,16,7.2,16,16s-7.2,16-16,16v38c27.1-42.2,74.5-70,128-70,80.1,0,146.5,62.2,151.7,142.2l7.3,114.3c1.3,20-12.4,37.9-32.1,41.8l-100.8,20.1c-5.2,1-10.4,1.6-15.7,1.6h-20.9c-5.3,0-10.5-.5-15.7-1.6l-100.8-20.1c-16.2-3.2-28.4-16-31.4-31.6-1-3.4-1.6-7-1.6-10.7V80ZM320,112c-46,0-85.4,30-99,72h198c-13.6-42-53-72-99-72ZM214.7,233.4c39.6,16.8,68.4,54.2,72.8,98.8l8.6,1.7v-98.4l-80.5-15.1-.8,13h-.1ZM344,333.9l8.6-1.7c4.3-44.6,33.1-82,72.8-98.8l-.8-13-80.5,15.1v98.4h-.1ZM112,553.1c0-75.7,61.4-137.1,137.1-137.1h141.7c75.7,0,137.1,61.4,137.1,137.1,0,12.6-10.2,22.9-22.9,22.9h-121.1v-40c0-5-2.4-9.8-6.4-12.8l-48-36c-5.7-4.3-13.5-4.3-19.2,0l-48,36c-4,3-6.4,7.8-6.4,12.8v40h-121.1c-12.6,0-22.8-10.2-22.8-22.9Z"/>
</svg>