<?xml version="1.0" encoding="UTF-8"?>
<svg id="Layer_1" xmlns="http://www.w3.org/2000/svg" version="1.1" viewBox="0 0 640 640">
  <!-- Generator: Adobe Illustrator 29.8.5, SVG Export Plug-In . SVG Version: 2.1.1 Build 2)  -->
  <defs>
    <style>
      .st0 {
        fill: #22c55e;
      }
    </style>
  </defs>
  <path class="st0" d="M320,64c70.7,0,128,57.3,128,128v32H192v-32c0-70.7,57.3-128,128-128ZM320,160c0-17.7-14.3-32-32-32s-32,14.3-32,32,14.3,32,32,32,32-14.3,32-32ZM368,192c8.8,0,16-7.2,16-16s-7.2-16-16-16-16,7.2-16,16,7.2,16,16,16ZM112,304c0-26.5,21.5-48,48-48h320c26.5,0,48,21.5,48,48v158.3c0,8.7,2.4,17.2,6.8,24.7l38.9,64.8c3,4.9,3,11.1.2,16.1-2.8,5-8.1,8.1-13.9,8.1h-96c-8.8,0-16-7.2-16-16v-112l-45.3,45.3c-12,12-28.3,18.7-45.3,18.7h-75c-17,0-33.3-6.7-45.3-18.7l-45.1-45.3v112c0,8.8-7.2,16-16,16h-96c-5.8,0-11.1-3.1-13.9-8.1-2.8-5-2.8-11.2.2-16.1l38.9-64.8c4.5-7.5,6.8-16,6.8-24.7v-158.3ZM272,320c-8.8,0-16,7.2-16,16s7.2,16,16,16h96c8.8,0,16-7.2,16-16s-7.2-16-16-16h-96ZM272,384c-8.8,0-16,7.2-16,16s7.2,16,16,16h96c8.8,0,16-7.2,16-16s-7.2-16-16-16h-96Z"/>
</svg>