<?xml version="1.0" encoding="UTF-8"?>
<svg id="Layer_1" xmlns="http://www.w3.org/2000/svg" version="1.1" viewBox="0 0 640 640">
  <!-- Generator: Adobe Illustrator 29.8.5, SVG Export Plug-In . SVG Version: 2.1.1 Build 2)  -->
  <defs>
    <style>
      .st0 {
        fill: #22c55e;
      }
    </style>
  </defs>
  <path class="st0" d="M516.7,100.7c-10.6,10.6-38.6,29.6-83,43.2-9.8-53.7-29.9-111.9-64-111.9-8.9,0-17.7,3.8-25.5,8-7.7,4.2-17.4,8-24.1,8s-16.4-3.8-24.1-8c-7.9-4.3-16.6-8-25.5-8-34.1,0-54.2,58.2-64,111.9-44.4-13.6-72.4-32.5-83-43.2-5.5-5.5-14.3-6.3-20.7-1.7-6.4,4.6-8.5,13.1-5,20.1,11.6,23.1,42,57,94.3,80v8.9c0,70.7,57.3,128,128,128s128-57.3,128-128v-8.9c52.3-22.9,82.8-56.8,94.3-80,3.5-7,1.4-15.5-5-20.1-6.4-4.6-15.1-3.9-20.7,1.7ZM399.7,215.2c-3.6,40.8-37.9,72.8-79.7,72.8s-76.1-32-79.7-72.9c23.5,5.6,50,8.9,79.7,8.9s56.2-3.3,79.7-8.9v.1ZM276.6,384c-90.9,0-164.6,73.7-164.6,164.6,0,15.1,12.3,27.4,27.4,27.4h361.1c15.1,0,27.4-12.3,27.4-27.4,0-90.9-73.7-164.6-164.6-164.6h-86.9.2Z"/>
</svg>