<svg xmlns="http://www.w3.org/2000/svg" id="Layer_1" viewBox="0 0 240 234" width="240" height="234"><style>.st0 {
  fill: #0acf83;
}

.st1 {
  fill: #a259ff;
}

.st2 {
  fill: #f24e1e;
}

.st3 {
  fill: #ff7262;
}

.st4 {
  fill: #1abcfe;
}

</style><path id="path0_fill_00000057830834607203909710000018220981176384922274_" d="M94 197c14.6 0 26.5-11.9 26.5-26.5V144H94c-14.6 0-26.5 11.9-26.5 26.5S79.4 197 94 197z" class="st0"></path><path id="path1_fill_00000164491454064286209740000000503615994301861542_" d="M67.5 117.5C67.5 102.9 79.4 91 94 91h26.5v53H94c-14.6 0-26.5-11.9-26.5-26.5z" class="st1"></path><path id="path1_fill_00000071532711334632884520000007278552964777444229_" d="M67.5 64.5C67.5 49.9 79.4 38 94 38h26.5v53H94c-14.6 0-26.5-11.9-26.5-26.5z" class="st2"></path><path id="path2_fill_00000127042240795624926030000007793083458528280969_" d="M120.5 38H147c14.6 0 26.5 11.9 26.5 26.5S161.6 91 147 91h-26.5V38z" class="st3"></path><path id="path3_fill_00000080164322567418094120000008593897583224933045_" d="M173.5 117.5c0 14.6-11.9 26.5-26.5 26.5s-26.5-11.9-26.5-26.5S132.4 91 147 91s26.5 11.9 26.5 26.5z" class="st4"></path></svg>