<?xml version="1.0" encoding="utf-8"?>
<!-- Generator: Adobe Illustrator 26.0.1, SVG Export Plug-In . SVG Version: 6.00 Build 0)  -->
<svg version="1.1" id="Layer_1" xmlns="http://www.w3.org/2000/svg" xmlns:xlink="http://www.w3.org/1999/xlink" x="0px" y="0px" viewBox="0 0 37.9 35" style="enable-background: new 0 0 37.9 35" xml:space="preserve">
<style>.st0 {
  fill: #fff;
}

.st1 {
  fill: #0052cc;
}

.st2 {
  fill: url("#SVGID_1_");
}

</style>
<g>
	<ellipse class="st0" cx="18.7" cy="17.8" rx="9.2" ry="9"></ellipse>
	<g>
		<path class="st1" d="M1.3,0.7c-0.7,0-1.2,0.5-1.2,1.2V2l5.1,31.3c0.2,0.9,0.9,1.4,1.5,1.4h24.7c0.7,0,1.2-0.5,1.2-1L37.7,2
			c0.2-0.7-0.3-1.4-1-1.4h-0.2L1.3,0.7z M23.1,23.3h-7.8L13,12.2h12L23.1,23.3z"></path>
		
			<linearGradient id="SVGID_1_" gradientUnits="userSpaceOnUse" x1="21.2831" y1="595.3336" x2="42.4659" y2="564.1823" gradientTransform="matrix(1 0 0 1 0 -564)">
			<stop offset="1.118836e-07" style="stop-color: #0052cc"></stop>
			<stop offset="0.962" style="stop-color: #130094"></stop>
		</linearGradient>
		<path class="st2" d="M36.1,12.1L25,12.2l-1.9,11.1h-7.8L5.9,34.4c0.3,0.2,0.7,0.3,1,0.3h24.7c0.7,0,1.2-0.5,1.2-1L36.1,12.1z"></path>
	</g>
</g>
</svg>
