<?xml version="1.0" encoding="UTF-8"?>
<svg id="Layer_1" xmlns="http://www.w3.org/2000/svg" version="1.1" viewBox="0 0 125 42">
  <!-- Generator: Adobe Illustrator 29.8.5, SVG Export Plug-In . SVG Version: 2.1.1 Build 2)  -->
  <defs>
    <style>
      .st0 {
        fill: #86bad3;
      }

      .st0, .st1 {
        fill-rule: evenodd;
      }

      .st1 {
        fill: #f7f7f7;
      }
    </style>
  </defs>
  <g id="Styleguide">
    <g id="BugHerd-Logo">
      <g id="BugHerd">
        <path id="Fill-5" class="st1" d="M7.83,14.41c1.02-.12,1.77-.77,1.83-1.76.11-2,.11-4.02-.05-6.01-.04-.52-.74-1.26-1.28-1.42-.99-.29-2.08-.23-3.15-.32v9.66c.92-.05,1.8-.05,2.66-.15ZM5.17,29.35c1.21-.08,2.38-.06,3.51-.25,1.09-.18,1.85-.94,1.91-2.06.09-1.94.11-3.89,0-5.83-.07-1.17-.85-1.98-2.05-2.14-1.08-.15-2.18-.14-3.36-.2v10.48ZM12.28,16.56c2.74,1.37,3.56,3.69,3.45,6.51-.06,1.63.1,3.3-.17,4.9-.56,3.4-3.3,5.63-6.77,5.7-2.08.04-4.16.02-6.24,0-1.43-.01-2.38-.95-2.38-2.37-.01-9.45-.01-18.9,0-28.36,0-1.28.81-2.34,1.99-2.35,2.52-.03,5.06-.11,7.55.19,3.12.37,5,2.7,5.1,5.85.05,1.73.05,3.47,0,5.2-.06,1.94-1,3.47-2.52,4.73h0Z"/>
        <path id="Fill-6" class="st1" d="M59.1,19.17c0,4.18,0,8.27,0,12.37,0,2.08-2.09,3.24-3.89,2.18-.93-.55-1.16-1.42-1.16-2.42,0-4.7,0-9.39,0-14.09s0-9.58,0-14.37c0-1.72.96-2.68,2.62-2.65,1.45.02,2.42.98,2.42,2.45.01,3.53,0,7.06,0,10.59,0,.34,0,.69,0,1.1h5.51c.02-.35.05-.71.05-1.07,0-3.5,0-7,0-10.5,0-1.65.98-2.59,2.6-2.57,1.47.01,2.43.95,2.44,2.42.01,3.47,0,6.93,0,10.4,0,6.11,0,12.23,0,18.34,0,1.77-.89,2.72-2.53,2.71-1.62,0-2.51-.98-2.52-2.75,0-3.66,0-7.31,0-10.97v-1.17h-5.56"/>
        <path id="Fill-7" class="st1" d="M42.56,32.54s0,.02,0,.03c-.22,0-.44,0-.66,0-1.23,0-1.75.45-2.17,1.87-.37,1.26-.06,2.37.82,2.96,1.3.87,4.03.69,5.15-.39.78-.75,1.06-1.68.76-2.75-.3-1.07-1.1-1.47-2.11-1.58-.59-.06-1.19-.08-1.79-.12h0ZM45.07,17.78h0c0-.88.05-1.76-.01-2.64-.09-1.34-.91-2.1-2.19-2.09-1.25,0-2.09.79-2.13,2.14-.05,1.73-.05,3.46,0,5.18.04,1.34.89,2.13,2.14,2.14,1.29,0,2.12-.79,2.19-2.19.04-.85,0-1.7,0-2.54h0ZM48.71,12.73c1.03,1.14,1.16,2.46,1.11,3.83-.06,1.6.05,3.23-.22,4.8-.53,3.11-3.06,5.1-6.22,5.13-.81,0-1.63,0-2.68,0-.02.35-.22.98,0,1.36.21.36.84.63,1.32.67,1.06.1,2.14.03,3.22.03,4.13.02,6.68,3.02,6.03,7.11-.49,3.09-2.56,5.18-5.96,5.89-2.16.45-4.33.41-6.47-.16-3.86-1.03-5.31-5.22-2.82-8.12.42-.49.98-.87,1.55-1.36-1.26-.89-1.8-2.12-1.67-3.65.12-1.49.92-2.57,2.17-3.47-1.95-1.93-2.2-4.34-2.07-6.85.07-1.32,0-2.66.22-3.95.49-2.87,2.84-4.76,5.76-4.95,2.23-.15,4.44-.45,6.66-.69.19-.02.38-.05.56-.06,1.65-.12,2.34.35,2.49,1.71.18,1.52-.46,2.35-2.04,2.62-.27.05-.55.06-.93.1h0Z"/>
        <path id="Fill-8" class="st1" d="M110.6,21.7c0-2.24-.05-4.48.02-6.71.03-.88-.37-1.26-1.07-1.53-1.63-.62-2.91.24-2.91,2.03-.02,4.1-.01,8.19,0,12.29,0,.4.07.82.2,1.2.3.84,1.17,1.23,2.18,1.05,1.14-.2,1.57-.67,1.57-1.71,0-2.21,0-4.41,0-6.62h0ZM110.67,32.07c-.98,1.32-2.17,2.13-3.77,2.18-2.99.08-5.08-1.84-5.11-4.84-.05-5.23-.04-10.47,0-15.7.01-1.77.63-3.32,2.34-4.12,1.8-.85,3.61-.75,5.32.32.37.23.68.55,1.15.94v-1.72c0-2.11,0-4.23,0-6.34,0-1.74.79-2.6,2.39-2.61,1.64,0,2.47.86,2.47,2.64,0,9.21,0,18.41,0,27.62,0,.41.01.82,0,1.23-.04,1.28-.71,2.17-1.76,2.36-1.33.24-2.31-.26-2.85-1.47-.06-.13-.1-.27-.18-.5h0Z"/>
        <path id="Fill-9" class="st1" d="M27.73,32.09c-1.24,2.07-3.14,2.46-5.27,2.05-2.1-.41-3.49-2.14-3.51-4.55-.06-6.05-.03-12.11-.01-18.16,0-1.22.88-2.07,2.08-2.15,1.51-.11,2.48.56,2.71,1.88.06.34.06.69.06,1.03,0,4.86,0,9.71,0,14.57,0,.41.01.82.05,1.23.13,1.49,1.01,2.11,2.46,1.73.81-.21,1.26-.62,1.25-1.58-.04-5.42-.03-10.85-.02-16.27,0-1.66.84-2.57,2.33-2.59,1.63-.03,2.52.83,2.52,2.48,0,6.56,0,13.12,0,19.67,0,1.58-.51,2.39-1.62,2.61-1.5.3-2.43-.27-3.04-1.94"/>
        <path id="Fill-10" class="st1" d="M82.24,19.22c0-1.57.07-3.05-.02-4.51-.07-1.07-.77-1.59-1.75-1.59-.92,0-1.7.54-1.77,1.5-.1,1.52-.03,3.05-.03,4.6h3.57ZM78.62,23.09c0,1.86-.04,3.59.02,5.31.04,1.2.77,1.86,1.84,1.85,1.09,0,1.76-.65,1.88-1.83.02-.16.02-.31.02-.47.05-1.6.79-2.35,2.31-2.34,1.5.01,2.26.81,2.28,2.39.04,3.77-2.37,6.24-6.16,6.23-.91,0-1.84-.05-2.71-.27-2.57-.64-4.18-2.49-4.28-5.44-.15-4.5-.17-9.01.04-13.5.21-4.6,3.74-6.52,8.03-5.85,3.2.5,5.09,2.79,5.2,6.12.06,1.95.03,3.91,0,5.86-.02,1.28-.72,1.93-2.04,1.93-2.11,0-4.22,0-6.43,0h0Z"/>
        <path id="Fill-11" class="st1" d="M95.21,11.67c.41-1.82,1.47-2.56,3.19-2.4,1.36.12,2.02.95,1.99,2.57-.03,1.48-.8,2.38-2.09,2.39-.47,0-.94-.1-1.4-.17-1.06-.15-1.43.15-1.43,1.21,0,5.45,0,10.9,0,16.36,0,1.88-1.62,2.97-3.39,2.3-1.03-.39-1.46-1.14-1.47-2.59,0-6.43,0-12.86,0-19.29,0-1.62.55-2.42,1.76-2.58,1.63-.22,2.33.29,2.84,2.2"/>
        <path id="Fill-12" class="st0" d="M124.99,31.11c-.01,1.77-1.23,2.96-3,2.93-1.69-.02-2.85-1.25-2.85-2.99,0-1.77,1.21-2.94,3-2.92,1.71.02,2.86,1.23,2.85,2.97"/>
      </g>
    </g>
  </g>
</svg>