<?xml version="1.0" encoding="utf-8"?>
<!-- Generator: Adobe Illustrator 26.0.1, SVG Export Plug-In . SVG Version: 6.00 Build 0)  -->
<svg version="1.1" id="Layer_1" xmlns="http://www.w3.org/2000/svg" xmlns:xlink="http://www.w3.org/1999/xlink" x="0px" y="0px" viewBox="0 0 25.6 25.5" style="enable-background: new 0 0 25.6 25.5" xml:space="preserve">
<style>.st0 {
  fill: #fff;
}

.st1 {
  fill-rule: evenodd;
  clip-rule: evenodd;
  fill: url("#SVGID_1_");
}

</style>
<g>
	<rect x="3.3" y="3.6" class="st0" width="19.2" height="17.5"></rect>
	<g>
		
			<linearGradient id="SVGID_1_" gradientUnits="userSpaceOnUse" x1="-727.4316" y1="284.2521" x2="-727.4316" y2="285.2524" gradientTransform="matrix(25.2082 0 0 -25.1919 18350.043 7186.251)">
			<stop offset="0" style="stop-color: #0052cc"></stop>
			<stop offset="1" style="stop-color: #2684ff"></stop>
		</linearGradient>
		<path class="st1" d="M22.4,0.2H3.2c-1.7,0-3,1.3-3,3v19.2c0,0.8,0.3,1.6,0.9,2.1s1.3,0.9,2.1,0.9h19.2c0.8,0,1.6-0.3,2.1-0.9
			c0.6-0.6,0.9-1.3,0.9-2.1V3.2C25.4,1.5,24.1,0.2,22.4,0.2z M11.1,18.3c0,0.3-0.1,0.5-0.3,0.7s-0.4,0.3-0.7,0.3H5.9
			c-0.5,0-1-0.4-1-1V5.9c0-0.5,0.4-1,1-1h4.2c0.5,0,1,0.4,1,1V18.3z M20.8,12.6c0,0.3-0.1,0.5-0.3,0.7c-0.2,0.2-0.4,0.3-0.7,0.3
			h-4.2c-0.5,0-1-0.4-1-1V5.8c0-0.5,0.4-1,1-1h4.2c0.5,0,1,0.4,1,1V12.6z"></path>
	</g>
</g>
</svg>
